<svg width="32" height="32" viewBox="0 0 32 32" fill="none" xmlns="http://www.w3.org/2000/svg">
<path d="M14.541 4.33285H4.33268C3.55913 4.33285 2.81727 4.64014 2.27029 5.18712C1.72331 5.7341 1.41602 6.47597 1.41602 7.24952V27.6662C1.41602 28.4397 1.72331 29.1816 2.27029 29.7286C2.81727 30.2756 3.55913 30.5828 4.33268 30.5828H24.7493C25.5229 30.5828 26.2648 30.2756 26.8117 29.7286C27.3587 29.1816 27.666 28.4397 27.666 27.6662V17.4578M25.4785 2.14535C26.0587 1.56519 26.8455 1.23926 27.666 1.23926C28.4865 1.23926 29.2734 1.56519 29.8535 2.14535C30.4337 2.72551 30.7596 3.51238 30.7596 4.33285C30.7596 5.15332 30.4337 5.94019 29.8535 6.52035L15.9993 20.3745L10.166 21.8328L11.6243 15.9995L25.4785 2.14535Z" stroke="white" stroke-width="2" stroke-linecap="round" stroke-linejoin="round"/>
</svg>
